G04 #@! TF.FileFunction,Legend,Top*
%FSLAX46Y46*%
G04 Gerber Fmt 4.6, Leading zero omitted, Abs format (unit mm)*
G04 Created by KiCad (PCBNEW 4.0.2-stable) date Monday, July 18, 2016 'PMt' 05:42:52 PM*
%MOMM*%
G01*
G04 APERTURE LIST*
%ADD10C,0.100000*%
%ADD11C,0.300000*%
%ADD12C,0.150000*%
G04 APERTURE END LIST*
D10*
D11*
X148474857Y-108724000D02*
X148332000Y-108652571D01*
X148117714Y-108652571D01*
X147903429Y-108724000D01*
X147760571Y-108866857D01*
X147689143Y-109009714D01*
X147617714Y-109295429D01*
X147617714Y-109509714D01*
X147689143Y-109795429D01*
X147760571Y-109938286D01*
X147903429Y-110081143D01*
X148117714Y-110152571D01*
X148260571Y-110152571D01*
X148474857Y-110081143D01*
X148546286Y-110009714D01*
X148546286Y-109509714D01*
X148260571Y-109509714D01*
X148546286Y-100500571D02*
X148046286Y-99786286D01*
X147689143Y-100500571D02*
X147689143Y-99000571D01*
X148260571Y-99000571D01*
X148403429Y-99072000D01*
X148474857Y-99143429D01*
X148546286Y-99286286D01*
X148546286Y-99500571D01*
X148474857Y-99643429D01*
X148403429Y-99714857D01*
X148260571Y-99786286D01*
X147689143Y-99786286D01*
D12*
X146913600Y-107848400D02*
X149199600Y-107848400D01*
X146913600Y-100965000D02*
X149199600Y-100965000D01*
X149199600Y-100965000D02*
X149199600Y-107823000D01*
X146913600Y-100965000D02*
X146913600Y-107823000D01*
X148042334Y-110331143D02*
X147994715Y-110378762D01*
X147851858Y-110426381D01*
X147756620Y-110426381D01*
X147613762Y-110378762D01*
X147518524Y-110283524D01*
X147470905Y-110188286D01*
X147423286Y-109997810D01*
X147423286Y-109854952D01*
X147470905Y-109664476D01*
X147518524Y-109569238D01*
X147613762Y-109474000D01*
X147756620Y-109426381D01*
X147851858Y-109426381D01*
X147994715Y-109474000D01*
X148042334Y-109521619D01*
X148994715Y-110426381D02*
X148423286Y-110426381D01*
X148709000Y-110426381D02*
X148709000Y-109426381D01*
X148613762Y-109569238D01*
X148518524Y-109664476D01*
X148423286Y-109712095D01*
X146558095Y-118070381D02*
X146558095Y-118879905D01*
X146605714Y-118975143D01*
X146653333Y-119022762D01*
X146748571Y-119070381D01*
X146939048Y-119070381D01*
X147034286Y-119022762D01*
X147081905Y-118975143D01*
X147129524Y-118879905D01*
X147129524Y-118070381D01*
X148129524Y-119070381D02*
X147558095Y-119070381D01*
X147843809Y-119070381D02*
X147843809Y-118070381D01*
X147748571Y-118213238D01*
X147653333Y-118308476D01*
X147558095Y-118356095D01*
X142748095Y-118070381D02*
X142748095Y-118879905D01*
X142795714Y-118975143D01*
X142843333Y-119022762D01*
X142938571Y-119070381D01*
X143129048Y-119070381D01*
X143224286Y-119022762D01*
X143271905Y-118975143D01*
X143319524Y-118879905D01*
X143319524Y-118070381D01*
X143748095Y-118165619D02*
X143795714Y-118118000D01*
X143890952Y-118070381D01*
X144129048Y-118070381D01*
X144224286Y-118118000D01*
X144271905Y-118165619D01*
X144319524Y-118260857D01*
X144319524Y-118356095D01*
X144271905Y-118498952D01*
X143700476Y-119070381D01*
X144319524Y-119070381D01*
X138938095Y-118070381D02*
X138938095Y-118879905D01*
X138985714Y-118975143D01*
X139033333Y-119022762D01*
X139128571Y-119070381D01*
X139319048Y-119070381D01*
X139414286Y-119022762D01*
X139461905Y-118975143D01*
X139509524Y-118879905D01*
X139509524Y-118070381D01*
X139890476Y-118070381D02*
X140509524Y-118070381D01*
X140176190Y-118451333D01*
X140319048Y-118451333D01*
X140414286Y-118498952D01*
X140461905Y-118546571D01*
X140509524Y-118641810D01*
X140509524Y-118879905D01*
X140461905Y-118975143D01*
X140414286Y-119022762D01*
X140319048Y-119070381D01*
X140033333Y-119070381D01*
X139938095Y-119022762D01*
X139890476Y-118975143D01*
X138938095Y-114260381D02*
X138938095Y-115069905D01*
X138985714Y-115165143D01*
X139033333Y-115212762D01*
X139128571Y-115260381D01*
X139319048Y-115260381D01*
X139414286Y-115212762D01*
X139461905Y-115165143D01*
X139509524Y-115069905D01*
X139509524Y-114260381D01*
X140414286Y-114593714D02*
X140414286Y-115260381D01*
X140176190Y-114212762D02*
X139938095Y-114927048D01*
X140557143Y-114927048D01*
X138938095Y-110450381D02*
X138938095Y-111259905D01*
X138985714Y-111355143D01*
X139033333Y-111402762D01*
X139128571Y-111450381D01*
X139319048Y-111450381D01*
X139414286Y-111402762D01*
X139461905Y-111355143D01*
X139509524Y-111259905D01*
X139509524Y-110450381D01*
X140461905Y-110450381D02*
X139985714Y-110450381D01*
X139938095Y-110926571D01*
X139985714Y-110878952D01*
X140080952Y-110831333D01*
X140319048Y-110831333D01*
X140414286Y-110878952D01*
X140461905Y-110926571D01*
X140509524Y-111021810D01*
X140509524Y-111259905D01*
X140461905Y-111355143D01*
X140414286Y-111402762D01*
X140319048Y-111450381D01*
X140080952Y-111450381D01*
X139985714Y-111402762D01*
X139938095Y-111355143D01*
X138938095Y-106640381D02*
X138938095Y-107449905D01*
X138985714Y-107545143D01*
X139033333Y-107592762D01*
X139128571Y-107640381D01*
X139319048Y-107640381D01*
X139414286Y-107592762D01*
X139461905Y-107545143D01*
X139509524Y-107449905D01*
X139509524Y-106640381D01*
X140414286Y-106640381D02*
X140223809Y-106640381D01*
X140128571Y-106688000D01*
X140080952Y-106735619D01*
X139985714Y-106878476D01*
X139938095Y-107068952D01*
X139938095Y-107449905D01*
X139985714Y-107545143D01*
X140033333Y-107592762D01*
X140128571Y-107640381D01*
X140319048Y-107640381D01*
X140414286Y-107592762D01*
X140461905Y-107545143D01*
X140509524Y-107449905D01*
X140509524Y-107211810D01*
X140461905Y-107116571D01*
X140414286Y-107068952D01*
X140319048Y-107021333D01*
X140128571Y-107021333D01*
X140033333Y-107068952D01*
X139985714Y-107116571D01*
X139938095Y-107211810D01*
X138938095Y-102830381D02*
X138938095Y-103639905D01*
X138985714Y-103735143D01*
X139033333Y-103782762D01*
X139128571Y-103830381D01*
X139319048Y-103830381D01*
X139414286Y-103782762D01*
X139461905Y-103735143D01*
X139509524Y-103639905D01*
X139509524Y-102830381D01*
X139890476Y-102830381D02*
X140557143Y-102830381D01*
X140128571Y-103830381D01*
X138938095Y-99020381D02*
X138938095Y-99829905D01*
X138985714Y-99925143D01*
X139033333Y-99972762D01*
X139128571Y-100020381D01*
X139319048Y-100020381D01*
X139414286Y-99972762D01*
X139461905Y-99925143D01*
X139509524Y-99829905D01*
X139509524Y-99020381D01*
X140128571Y-99448952D02*
X140033333Y-99401333D01*
X139985714Y-99353714D01*
X139938095Y-99258476D01*
X139938095Y-99210857D01*
X139985714Y-99115619D01*
X140033333Y-99068000D01*
X140128571Y-99020381D01*
X140319048Y-99020381D01*
X140414286Y-99068000D01*
X140461905Y-99115619D01*
X140509524Y-99210857D01*
X140509524Y-99258476D01*
X140461905Y-99353714D01*
X140414286Y-99401333D01*
X140319048Y-99448952D01*
X140128571Y-99448952D01*
X140033333Y-99496571D01*
X139985714Y-99544190D01*
X139938095Y-99639429D01*
X139938095Y-99829905D01*
X139985714Y-99925143D01*
X140033333Y-99972762D01*
X140128571Y-100020381D01*
X140319048Y-100020381D01*
X140414286Y-99972762D01*
X140461905Y-99925143D01*
X140509524Y-99829905D01*
X140509524Y-99639429D01*
X140461905Y-99544190D01*
X140414286Y-99496571D01*
X140319048Y-99448952D01*
X142748095Y-99020381D02*
X142748095Y-99829905D01*
X142795714Y-99925143D01*
X142843333Y-99972762D01*
X142938571Y-100020381D01*
X143129048Y-100020381D01*
X143224286Y-99972762D01*
X143271905Y-99925143D01*
X143319524Y-99829905D01*
X143319524Y-99020381D01*
X143843333Y-100020381D02*
X144033809Y-100020381D01*
X144129048Y-99972762D01*
X144176667Y-99925143D01*
X144271905Y-99782286D01*
X144319524Y-99591810D01*
X144319524Y-99210857D01*
X144271905Y-99115619D01*
X144224286Y-99068000D01*
X144129048Y-99020381D01*
X143938571Y-99020381D01*
X143843333Y-99068000D01*
X143795714Y-99115619D01*
X143748095Y-99210857D01*
X143748095Y-99448952D01*
X143795714Y-99544190D01*
X143843333Y-99591810D01*
X143938571Y-99639429D01*
X144129048Y-99639429D01*
X144224286Y-99591810D01*
X144271905Y-99544190D01*
X144319524Y-99448952D01*
X146081905Y-99020381D02*
X146081905Y-99829905D01*
X146129524Y-99925143D01*
X146177143Y-99972762D01*
X146272381Y-100020381D01*
X146462858Y-100020381D01*
X146558096Y-99972762D01*
X146605715Y-99925143D01*
X146653334Y-99829905D01*
X146653334Y-99020381D01*
X147653334Y-100020381D02*
X147081905Y-100020381D01*
X147367619Y-100020381D02*
X147367619Y-99020381D01*
X147272381Y-99163238D01*
X147177143Y-99258476D01*
X147081905Y-99306095D01*
X148272381Y-99020381D02*
X148367620Y-99020381D01*
X148462858Y-99068000D01*
X148510477Y-99115619D01*
X148558096Y-99210857D01*
X148605715Y-99401333D01*
X148605715Y-99639429D01*
X148558096Y-99829905D01*
X148510477Y-99925143D01*
X148462858Y-99972762D01*
X148367620Y-100020381D01*
X148272381Y-100020381D01*
X148177143Y-99972762D01*
X148129524Y-99925143D01*
X148081905Y-99829905D01*
X148034286Y-99639429D01*
X148034286Y-99401333D01*
X148081905Y-99210857D01*
X148129524Y-99115619D01*
X148177143Y-99068000D01*
X148272381Y-99020381D01*
X149891905Y-99020381D02*
X149891905Y-99829905D01*
X149939524Y-99925143D01*
X149987143Y-99972762D01*
X150082381Y-100020381D01*
X150272858Y-100020381D01*
X150368096Y-99972762D01*
X150415715Y-99925143D01*
X150463334Y-99829905D01*
X150463334Y-99020381D01*
X151463334Y-100020381D02*
X150891905Y-100020381D01*
X151177619Y-100020381D02*
X151177619Y-99020381D01*
X151082381Y-99163238D01*
X150987143Y-99258476D01*
X150891905Y-99306095D01*
X152415715Y-100020381D02*
X151844286Y-100020381D01*
X152130000Y-100020381D02*
X152130000Y-99020381D01*
X152034762Y-99163238D01*
X151939524Y-99258476D01*
X151844286Y-99306095D01*
X153701905Y-99020381D02*
X153701905Y-99829905D01*
X153749524Y-99925143D01*
X153797143Y-99972762D01*
X153892381Y-100020381D01*
X154082858Y-100020381D01*
X154178096Y-99972762D01*
X154225715Y-99925143D01*
X154273334Y-99829905D01*
X154273334Y-99020381D01*
X155273334Y-100020381D02*
X154701905Y-100020381D01*
X154987619Y-100020381D02*
X154987619Y-99020381D01*
X154892381Y-99163238D01*
X154797143Y-99258476D01*
X154701905Y-99306095D01*
X155654286Y-99115619D02*
X155701905Y-99068000D01*
X155797143Y-99020381D01*
X156035239Y-99020381D01*
X156130477Y-99068000D01*
X156178096Y-99115619D01*
X156225715Y-99210857D01*
X156225715Y-99306095D01*
X156178096Y-99448952D01*
X155606667Y-100020381D01*
X156225715Y-100020381D01*
X153701905Y-102830381D02*
X153701905Y-103639905D01*
X153749524Y-103735143D01*
X153797143Y-103782762D01*
X153892381Y-103830381D01*
X154082858Y-103830381D01*
X154178096Y-103782762D01*
X154225715Y-103735143D01*
X154273334Y-103639905D01*
X154273334Y-102830381D01*
X155273334Y-103830381D02*
X154701905Y-103830381D01*
X154987619Y-103830381D02*
X154987619Y-102830381D01*
X154892381Y-102973238D01*
X154797143Y-103068476D01*
X154701905Y-103116095D01*
X155606667Y-102830381D02*
X156225715Y-102830381D01*
X155892381Y-103211333D01*
X156035239Y-103211333D01*
X156130477Y-103258952D01*
X156178096Y-103306571D01*
X156225715Y-103401810D01*
X156225715Y-103639905D01*
X156178096Y-103735143D01*
X156130477Y-103782762D01*
X156035239Y-103830381D01*
X155749524Y-103830381D01*
X155654286Y-103782762D01*
X155606667Y-103735143D01*
X153701905Y-106640381D02*
X153701905Y-107449905D01*
X153749524Y-107545143D01*
X153797143Y-107592762D01*
X153892381Y-107640381D01*
X154082858Y-107640381D01*
X154178096Y-107592762D01*
X154225715Y-107545143D01*
X154273334Y-107449905D01*
X154273334Y-106640381D01*
X155273334Y-107640381D02*
X154701905Y-107640381D01*
X154987619Y-107640381D02*
X154987619Y-106640381D01*
X154892381Y-106783238D01*
X154797143Y-106878476D01*
X154701905Y-106926095D01*
X156130477Y-106973714D02*
X156130477Y-107640381D01*
X155892381Y-106592762D02*
X155654286Y-107307048D01*
X156273334Y-107307048D01*
X153701905Y-110450381D02*
X153701905Y-111259905D01*
X153749524Y-111355143D01*
X153797143Y-111402762D01*
X153892381Y-111450381D01*
X154082858Y-111450381D01*
X154178096Y-111402762D01*
X154225715Y-111355143D01*
X154273334Y-111259905D01*
X154273334Y-110450381D01*
X155273334Y-111450381D02*
X154701905Y-111450381D01*
X154987619Y-111450381D02*
X154987619Y-110450381D01*
X154892381Y-110593238D01*
X154797143Y-110688476D01*
X154701905Y-110736095D01*
X156178096Y-110450381D02*
X155701905Y-110450381D01*
X155654286Y-110926571D01*
X155701905Y-110878952D01*
X155797143Y-110831333D01*
X156035239Y-110831333D01*
X156130477Y-110878952D01*
X156178096Y-110926571D01*
X156225715Y-111021810D01*
X156225715Y-111259905D01*
X156178096Y-111355143D01*
X156130477Y-111402762D01*
X156035239Y-111450381D01*
X155797143Y-111450381D01*
X155701905Y-111402762D01*
X155654286Y-111355143D01*
X153701905Y-114260381D02*
X153701905Y-115069905D01*
X153749524Y-115165143D01*
X153797143Y-115212762D01*
X153892381Y-115260381D01*
X154082858Y-115260381D01*
X154178096Y-115212762D01*
X154225715Y-115165143D01*
X154273334Y-115069905D01*
X154273334Y-114260381D01*
X155273334Y-115260381D02*
X154701905Y-115260381D01*
X154987619Y-115260381D02*
X154987619Y-114260381D01*
X154892381Y-114403238D01*
X154797143Y-114498476D01*
X154701905Y-114546095D01*
X156130477Y-114260381D02*
X155940000Y-114260381D01*
X155844762Y-114308000D01*
X155797143Y-114355619D01*
X155701905Y-114498476D01*
X155654286Y-114688952D01*
X155654286Y-115069905D01*
X155701905Y-115165143D01*
X155749524Y-115212762D01*
X155844762Y-115260381D01*
X156035239Y-115260381D01*
X156130477Y-115212762D01*
X156178096Y-115165143D01*
X156225715Y-115069905D01*
X156225715Y-114831810D01*
X156178096Y-114736571D01*
X156130477Y-114688952D01*
X156035239Y-114641333D01*
X155844762Y-114641333D01*
X155749524Y-114688952D01*
X155701905Y-114736571D01*
X155654286Y-114831810D01*
X153701905Y-118070381D02*
X153701905Y-118879905D01*
X153749524Y-118975143D01*
X153797143Y-119022762D01*
X153892381Y-119070381D01*
X154082858Y-119070381D01*
X154178096Y-119022762D01*
X154225715Y-118975143D01*
X154273334Y-118879905D01*
X154273334Y-118070381D01*
X155273334Y-119070381D02*
X154701905Y-119070381D01*
X154987619Y-119070381D02*
X154987619Y-118070381D01*
X154892381Y-118213238D01*
X154797143Y-118308476D01*
X154701905Y-118356095D01*
X155606667Y-118070381D02*
X156273334Y-118070381D01*
X155844762Y-119070381D01*
X149891905Y-117816381D02*
X149891905Y-118625905D01*
X149939524Y-118721143D01*
X149987143Y-118768762D01*
X150082381Y-118816381D01*
X150272858Y-118816381D01*
X150368096Y-118768762D01*
X150415715Y-118721143D01*
X150463334Y-118625905D01*
X150463334Y-117816381D01*
X151463334Y-118816381D02*
X150891905Y-118816381D01*
X151177619Y-118816381D02*
X151177619Y-117816381D01*
X151082381Y-117959238D01*
X150987143Y-118054476D01*
X150891905Y-118102095D01*
X152034762Y-118244952D02*
X151939524Y-118197333D01*
X151891905Y-118149714D01*
X151844286Y-118054476D01*
X151844286Y-118006857D01*
X151891905Y-117911619D01*
X151939524Y-117864000D01*
X152034762Y-117816381D01*
X152225239Y-117816381D01*
X152320477Y-117864000D01*
X152368096Y-117911619D01*
X152415715Y-118006857D01*
X152415715Y-118054476D01*
X152368096Y-118149714D01*
X152320477Y-118197333D01*
X152225239Y-118244952D01*
X152034762Y-118244952D01*
X151939524Y-118292571D01*
X151891905Y-118340190D01*
X151844286Y-118435429D01*
X151844286Y-118625905D01*
X151891905Y-118721143D01*
X151939524Y-118768762D01*
X152034762Y-118816381D01*
X152225239Y-118816381D01*
X152320477Y-118768762D01*
X152368096Y-118721143D01*
X152415715Y-118625905D01*
X152415715Y-118435429D01*
X152368096Y-118340190D01*
X152320477Y-118292571D01*
X152225239Y-118244952D01*
M02*
