G04 #@! TF.FileFunction,Copper,L1,Top,Signal*
%FSLAX46Y46*%
G04 Gerber Fmt 4.6, Leading zero omitted, Abs format (unit mm)*
G04 Created by KiCad (PCBNEW 4.0.2-stable) date Monday, July 18, 2016 'PMt' 05:42:52 PM*
%MOMM*%
G01*
G04 APERTURE LIST*
%ADD10C,0.100000*%
%ADD11R,0.508000X0.254000*%
%ADD12C,1.778000*%
%ADD13C,0.250000*%
G04 APERTURE END LIST*
D10*
D11*
X147218400Y-107264200D03*
X147218400Y-106629200D03*
X147218400Y-105994200D03*
X147218400Y-105359200D03*
X147218400Y-104724200D03*
X147218400Y-104089200D03*
X147218400Y-103454200D03*
X147218400Y-102819200D03*
X147218400Y-102184200D03*
X147218400Y-101549200D03*
X148869400Y-102184200D03*
X148869400Y-102819200D03*
X148869400Y-103454200D03*
X148869400Y-104089200D03*
X148869400Y-104724200D03*
X148869400Y-105359200D03*
X148869400Y-105994200D03*
X148869400Y-106629200D03*
D12*
X148082000Y-111506000D03*
X145034000Y-111506000D03*
X141986000Y-111506000D03*
X141986000Y-108712000D03*
X141986000Y-105918000D03*
X141986000Y-103124000D03*
X141986000Y-100330000D03*
X141986000Y-97536000D03*
X145034000Y-97536000D03*
X148082000Y-97536000D03*
X151130000Y-97536000D03*
X154178000Y-97536000D03*
X154178000Y-100330000D03*
X154178000Y-103124000D03*
X154178000Y-105918000D03*
X154178000Y-108712000D03*
X154178000Y-111506000D03*
X151130000Y-111506000D03*
D13*
X147218400Y-107264200D02*
X147218400Y-107340400D01*
X147218400Y-107340400D02*
X148082000Y-108204000D01*
X148082000Y-108204000D02*
X148082000Y-111506000D01*
X147218400Y-106629200D02*
X146608800Y-106629200D01*
X145034000Y-108204000D02*
X145034000Y-111506000D01*
X146608800Y-106629200D02*
X145034000Y-108204000D01*
X147218400Y-105994200D02*
X145973800Y-105994200D01*
X143764000Y-109728000D02*
X141986000Y-111506000D01*
X143764000Y-108204000D02*
X143764000Y-109728000D01*
X145973800Y-105994200D02*
X143764000Y-108204000D01*
X147218400Y-105359200D02*
X145338800Y-105359200D01*
X145338800Y-105359200D02*
X141986000Y-108712000D01*
X147218400Y-104724200D02*
X143179800Y-104724200D01*
X143179800Y-104724200D02*
X141986000Y-105918000D01*
X147218400Y-104089200D02*
X142951200Y-104089200D01*
X142951200Y-104089200D02*
X141986000Y-103124000D01*
X147218400Y-103454200D02*
X145110200Y-103454200D01*
X145110200Y-103454200D02*
X141986000Y-100330000D01*
X147218400Y-102819200D02*
X145745200Y-102819200D01*
X144018000Y-99568000D02*
X141986000Y-97536000D01*
X144018000Y-101092000D02*
X144018000Y-99568000D01*
X145745200Y-102819200D02*
X144018000Y-101092000D01*
X147218400Y-102184200D02*
X146380200Y-102184200D01*
X145034000Y-100838000D02*
X145034000Y-97536000D01*
X146380200Y-102184200D02*
X145034000Y-100838000D01*
X147218400Y-101549200D02*
X147218400Y-100177600D01*
X148082000Y-99314000D02*
X148082000Y-97536000D01*
X147218400Y-100177600D02*
X148082000Y-99314000D01*
X148869400Y-102184200D02*
X148869400Y-101320600D01*
X151130000Y-99060000D02*
X151130000Y-97536000D01*
X148869400Y-101320600D02*
X151130000Y-99060000D01*
X148869400Y-102819200D02*
X150063200Y-102819200D01*
X151892000Y-99822000D02*
X154178000Y-97536000D01*
X151892000Y-100990400D02*
X151892000Y-99822000D01*
X150063200Y-102819200D02*
X151892000Y-100990400D01*
X148869400Y-103454200D02*
X151053800Y-103454200D01*
X151053800Y-103454200D02*
X154178000Y-100330000D01*
X148869400Y-104089200D02*
X153212800Y-104089200D01*
X153212800Y-104089200D02*
X154178000Y-103124000D01*
X148869400Y-104724200D02*
X152984200Y-104724200D01*
X152984200Y-104724200D02*
X154178000Y-105918000D01*
X148869400Y-105359200D02*
X150825200Y-105359200D01*
X150825200Y-105359200D02*
X154178000Y-108712000D01*
X148869400Y-105994200D02*
X149936200Y-105994200D01*
X152146000Y-109474000D02*
X154178000Y-111506000D01*
X152146000Y-108204000D02*
X152146000Y-109474000D01*
X149936200Y-105994200D02*
X152146000Y-108204000D01*
X148869400Y-106629200D02*
X148869400Y-106705400D01*
X148869400Y-106705400D02*
X151130000Y-108966000D01*
X151130000Y-108966000D02*
X151130000Y-111506000D01*
M02*
